<svg version="1.2" xmlns="http://www.w3.org/2000/svg" viewBox="0 0 50 50" width="50" height="50">
	<title>Proyecto nuevo</title>
	<style>
		.s0 { fill: #ffffff;stroke: #000000;stroke-miterlimit:10 } 
		.s1 { fill: #000000 } 
	</style>
	<g id="Layer 1">
		<path id="Forma 1" fill-rule="evenodd" class="s0" d="m25 49c-13.3 0-24-10.7-24-24 0-13.3 10.7-24 24-24 13.3 0 24 10.7 24 24 0 13.3-10.7 24-24 24z"/>
		<g id="Carpeta 1">
			<path id="ESC" class="s1" aria-label="ESC"  d="m16.6 18.4h-10.1c-0.5 0-0.9 0.4-0.9 0.8v11c0 0.4 0.4 0.8 0.9 0.8h10c0.5 0 0.9-0.4 0.9-0.8v-0.9c0-0.4-0.4-0.8-0.8-0.8h-7.7v-2.6h6.6c0.5 0 0.9-0.4 0.9-0.8v-0.8c0-0.5-0.4-0.9-0.9-0.9h-6.6v-2.5h7.7c0.4 0 0.8-0.4 0.8-0.8v-0.9c0-0.4-0.4-0.8-0.8-0.8zm1.8 3.6c0 4.7 9.5 3.5 9.5 5.6 0 0.6-0.4 1-1.5 1h-3.1c-0.9 0-1.6-0.3-1.9-0.9-0.2-0.6-0.6-0.8-1.1-0.8h-1.1c-0.2 0-0.9 0.1-0.9 0.9 0 2 2.4 3.3 4.7 3.3h2.7c4.3 0 5.6-1.5 5.6-3.7 0-4.7-9.6-3.5-9.6-5.6 0-0.6 0.5-1 1.6-1h2.6c0.9 0 1.6 0.3 1.9 0.9 0.3 0.6 0.7 0.8 1.2 0.8h1c0.3 0 0.9-0.1 0.9-0.9 0-2-2.4-3.3-4.7-3.3h-2.2c-4.3 0-5.6 1.5-5.6 3.7zm13.9 2.7c0 4.4 2.2 6.4 6.6 6.4h2.1c2.4 0 5.1-1.3 5.1-3.9 0-0.8-0.7-1-0.9-1h-1.1c-0.5 0-0.9 0.3-1.3 1-0.3 0.8-1 1.4-2.1 1.4h-1.8c-2.6 0-3.3-1-3.3-3.9 0-2.9 0.7-3.9 3.3-3.9h1.6c1.1 0 1.8 0.6 2.2 1.4 0.3 0.7 0.7 1 1.2 1h1.1c0.2 0 0.9-0.2 0.9-1 0-2.6-2.6-3.9-5.1-3.9h-1.9c-4.4 0-6.6 2-6.6 6.4z"/>
		</g>
	</g>
</svg>